<svg width="617" height="159" viewBox="0 0 617 159" fill="none" xmlns="http://www.w3.org/2000/svg">
<path d="M239.667 66.9095V0.604341H252.921V27.0343H294.064V0.604341H307.318V66.9095H294.064V40.4795H252.921V66.9095H239.667Z" fill="#FAFAFA"/>
<path d="M319.89 66.9095V13.8654C319.89 11.4096 320.473 9.19945 321.639 7.23486C322.866 5.20887 324.461 3.61263 326.425 2.44615C328.45 1.21828 330.69 0.604341 333.144 0.604341H372.814C375.269 0.604341 377.478 1.21828 379.441 2.44615C381.466 3.61263 383.092 5.20887 384.32 7.23486C385.547 9.19945 386.161 11.4096 386.161 13.8654V66.9095H372.722V45.084H333.144V66.9095H319.89ZM333.144 31.823H372.722V14.51C372.722 14.3258 372.661 14.203 372.538 14.1416C372.477 14.0189 372.354 13.9575 372.17 13.9575H333.696C333.512 13.9575 333.359 14.0189 333.236 14.1416C333.175 14.203 333.144 14.3258 333.144 14.51V31.823Z" fill="#FAFAFA"/>
<path d="M398.488 66.9095V0.696431H451.413C453.867 0.696431 456.076 1.31037 458.04 2.53824C460.065 3.70472 461.691 5.30096 462.918 7.32695C464.145 9.35294 464.759 11.5631 464.759 13.9575V31.4547C464.759 33.849 464.145 36.0592 462.918 38.0852C461.691 40.0498 460.065 41.646 458.04 42.8739C456.076 44.0404 453.867 44.6236 451.413 44.6236L411.743 44.7157V66.9095H398.488ZM412.295 31.2705H450.769C450.953 31.2705 451.075 31.2398 451.137 31.1784C451.259 31.0556 451.321 30.9328 451.321 30.81V14.51C451.321 14.3258 451.259 14.203 451.137 14.1416C451.075 14.0189 450.953 13.9575 450.769 13.9575H412.295C412.111 13.9575 411.957 14.0189 411.835 14.1416C411.773 14.203 411.743 14.3258 411.743 14.51V30.81C411.743 30.9328 411.773 31.0556 411.835 31.1784C411.957 31.2398 412.111 31.2705 412.295 31.2705Z" fill="#FAFAFA"/>
<path d="M473.136 66.9095V0.696431H526.061C528.515 0.696431 530.724 1.31037 532.688 2.53824C534.713 3.70472 536.339 5.30096 537.566 7.32695C538.793 9.35294 539.407 11.5631 539.407 13.9575V31.4547C539.407 33.849 538.793 36.0592 537.566 38.0852C536.339 40.0498 534.713 41.646 532.688 42.8739C530.724 44.0404 528.515 44.6236 526.061 44.6236L486.39 44.7157V66.9095H473.136ZM486.943 31.2705H525.416C525.6 31.2705 525.723 31.2398 525.785 31.1784C525.907 31.0556 525.969 30.9328 525.969 30.81V14.51C525.969 14.3258 525.907 14.203 525.785 14.1416C525.723 14.0189 525.6 13.9575 525.416 13.9575H486.943C486.759 13.9575 486.605 14.0189 486.482 14.1416C486.421 14.203 486.39 14.3258 486.39 14.51V30.81C486.39 30.9328 486.421 31.0556 486.482 31.1784C486.605 31.2398 486.759 31.2705 486.943 31.2705Z" fill="#FAFAFA"/>
<path d="M573.004 66.9095V42.1372L542.354 0.604341H558.093L579.631 27.6789L601.077 0.604341H617L586.35 42.2292V66.9095H573.004Z" fill="#FAFAFA"/>
<path d="M267.617 156.842C264.703 156.842 262.043 156.149 259.638 154.764C257.307 153.306 255.412 151.41 253.955 149.077C252.57 146.671 251.878 144.01 251.878 141.094V93.8517C251.878 90.9355 252.57 88.3109 253.955 85.978C255.412 83.5721 257.307 81.6766 259.638 80.2914C262.043 78.8333 264.703 78.1042 267.617 78.1042H314.726C317.64 78.1042 320.264 78.8333 322.595 80.2914C325 81.6766 326.931 83.5721 328.388 85.978C329.846 88.3109 330.574 90.9355 330.574 93.8517V100.632H314.616V94.6172C314.616 94.3985 314.543 94.2527 314.398 94.1798C314.325 94.034 314.179 93.9611 313.961 93.9611H268.273C268.054 93.9611 267.872 94.034 267.727 94.1798C267.654 94.2527 267.617 94.3985 267.617 94.6172V140.329C267.617 140.547 267.654 140.73 267.727 140.875C267.872 140.948 268.054 140.985 268.273 140.985H313.961C314.179 140.985 314.325 140.948 314.398 140.875C314.543 140.73 314.616 140.547 314.616 140.329V127.424H297.238V111.568H330.574V141.094C330.574 144.01 329.846 146.671 328.388 149.077C326.931 151.41 325 153.306 322.595 154.764C320.264 156.149 317.64 156.842 314.726 156.842H267.617Z" fill="#FAFAFA"/>
<path d="M345.01 156.842V93.8517C345.01 90.9355 345.703 88.3109 347.087 85.978C348.544 83.5721 350.439 81.6766 352.771 80.2914C355.175 78.8333 357.835 78.1042 360.75 78.1042H407.858C410.773 78.1042 413.396 78.8333 415.728 80.2914C418.132 81.6766 420.063 83.5721 421.521 85.978C422.978 88.3109 423.707 90.9355 423.707 93.8517V156.842H407.749V130.924H360.75V156.842H345.01ZM360.75 115.176H407.749V94.6172C407.749 94.3985 407.676 94.2527 407.53 94.1798C407.457 94.034 407.312 93.9611 407.093 93.9611H361.405C361.187 93.9611 361.005 94.034 360.859 94.1798C360.786 94.2527 360.75 94.3985 360.75 94.6172V115.176Z" fill="#FAFAFA"/>
<path d="M438.346 156.842V78.1042H455.069L482.613 111.021L510.047 78.1042H526.879V156.842H511.031V101.616L482.613 135.626L454.085 101.725V156.842H438.346Z" fill="#FAFAFA"/>
<path d="M542.152 156.842V78.1042H614.728V93.9611H558.11V109.49H603.689V125.456H558.11V140.985H614.728V156.842H542.152Z" fill="#FAFAFA"/>
<path d="M180.858 0C198.627 2.18886e-05 214.221 12.7497 217.946 30.3191L237.74 123.99C238.65 128.236 238.596 132.632 237.582 136.854C236.567 141.077 234.619 145.017 231.881 148.386C228.733 152.278 224.618 155.274 219.948 157.074C215.279 158.874 210.218 159.415 205.274 158.642C200.33 157.869 195.676 155.809 191.778 152.67C187.88 149.531 184.874 145.421 183.063 140.754L170.767 112.999C170.221 111.647 169.237 110.962 168.145 110.962H70.2128C69.6686 110.969 69.1393 111.142 68.6945 111.455C68.2497 111.769 67.9098 112.21 67.7197 112.721L55.1849 141.043C53.0824 146.355 49.4286 150.91 44.6998 154.113C39.9709 157.317 34.3864 159.02 28.6757 159C24.4208 159.004 20.2195 158.052 16.3811 156.215C12.5426 154.378 9.16446 151.703 6.49676 148.386C3.75955 145.017 1.81289 141.076 0.800417 136.854C-0.212072 132.631 -0.264747 128.235 0.646655 123.99L20.4419 30.3191C24.1566 12.7497 39.7504 0 57.5192 0H180.858ZM74.4931 24.8437C71.859 24.8438 69.3327 25.891 67.4701 27.7546C65.6076 29.6182 64.5615 32.1457 64.5615 34.7812V44.7187H54.6292C51.995 44.7187 49.4682 45.7659 47.6055 47.6295C45.743 49.4932 44.6969 52.0207 44.6969 54.6562C44.6969 57.2917 45.743 59.8192 47.6055 61.6828C49.4682 63.5465 51.995 64.5937 54.6292 64.5937H64.5615V74.5312C64.5616 77.1667 65.6076 79.6942 67.4701 81.5578C69.3327 83.4214 71.859 84.4686 74.4931 84.4687C77.1273 84.4687 79.6542 83.4215 81.5168 81.5578C83.3794 79.6942 84.4254 77.1667 84.4254 74.5312V64.5937H94.3577C96.9919 64.5937 99.5188 63.5465 101.381 61.6828C103.244 59.8192 104.29 57.2917 104.29 54.6562C104.29 52.0207 103.244 49.4932 101.381 47.6295C99.5188 45.7659 96.9919 44.7187 94.3577 44.7187H84.4254V34.7812C84.4254 32.1457 83.3794 29.6182 81.5168 27.7546C79.6542 25.8909 77.1273 24.8437 74.4931 24.8437ZM163.884 29.8125C150.197 29.8126 139.053 40.9624 139.053 54.6562C139.053 68.3499 150.197 79.4998 163.884 79.4999C177.571 79.4999 188.715 68.35 188.715 54.6562C188.715 40.9623 177.571 29.8125 163.884 29.8125Z" fill="#FAFAFA"/>
</svg>
